<svg xmlns="http://www.w3.org/2000/svg" viewBox="0 0 512 512">
  <path fill="white" d="M349.33 69.33H162.67C107.52 69.33 69.33 107.52 69.33 162.67v186.67c0 55.15 38.19 93.34 93.34 93.34h186.66c55.15 0 93.34-38.19 93.34-93.34V162.67c0-55.15-38.19-93.34-93.34-93.34zM256 352c-53.02 0-96-42.98-96-96s42.98-96 96-96 96 42.98 96 96-42.98 96-96 96zm106.67-192c-11.78 0-21.34-9.56-21.34-21.34s9.56-21.34 21.34-21.34 21.34 9.56 21.34 21.34-9.56 21.34-21.34 21.34z"/>
  <circle fill="white" cx="256" cy="256" r="64"/>
</svg>
